<svg width="66" height="66" viewBox="0 0 66 66" fill="none" xmlns="http://www.w3.org/2000/svg">
<path d="M29.9045 20.0566L13.6674 30.7845L0.116943 21.9223L33.0585 0.00012207L65.5328 21.9223L26.7505 47.9258L20.209 43.6113L51.5151 22.2721L32.124 9.0955L22.8957 15.3923L29.9045 20.0566Z" fill="#465EFF"/>
<path d="M52.8 9.09556L59.4584 13.5266L66 9.09556V0.233398L52.8 9.09556Z" fill="#465EFF"/>
<path d="M6.77534 52.4734L13.3169 57.2543L0.00012207 65.8832V57.2543L6.77534 52.4734Z" fill="#465EFF"/>
<path d="M36.0956 45.8269L42.6371 50.4912L33.6425 56.6714L14.0177 43.9612L45.4407 22.1556L38.8991 17.9578L0.350464 43.9612L32.708 66L65.7663 43.9612L52.0991 34.9824L36.0956 45.8269Z" fill="#465EFF"/>
</svg>
